<?xml version="1.0" encoding="UTF-8" standalone="no"?>
<svg xmlns:dc="http://purl.org/dc/elements/1.1/" xmlns:cc="http://creativecommons.org/ns#" xmlns:rdf="http://www.w3.org/1999/02/22-rdf-syntax-ns#" xmlns:svg="http://www.w3.org/2000/svg" xmlns="http://www.w3.org/2000/svg" xmlns:sodipodi="http://sodipodi.sourceforge.net/DTD/sodipodi-0.dtd" xmlns:inkscape="http://www.inkscape.org/namespaces/inkscape" version="1.1" x="0px" y="0px" viewBox="0 0 65.680611 100.00059" enable-background="new 0 0 105 105" xml:space="preserve" id="svg2" inkscape:version="0.91 r13725" sodipodi:docname="noun_189679_cc-by-sa.svg" width="65.680611" height="100.00059"><title id="title3374">Wheat</title><metadata id="metadata46"><rdf:RDF><cc:Work rdf:about=""><dc:format>image/svg+xml</dc:format><dc:type rdf:resource="http://purl.org/dc/dcmitype/StillImage"/><dc:title>Wheat</dc:title><cc:license rdf:resource="http://creativecommons.org/licenses/by-sa/3.0/"/><dc:creator><cc:Agent><dc:title>Douglas Santos</dc:title></cc:Agent></dc:creator><dc:date>2016-10-22</dc:date><dc:publisher><cc:Agent><dc:title>Haquino</dc:title></cc:Agent></dc:publisher><dc:source>https://thenounproject.com/term/wheat/189679/</dc:source><dc:identifier>noun_189679_cc.svg</dc:identifier><dc:subject><rdf:Bag><rdf:li>Wheat Ear Veteax Veteaxet</rdf:li></rdf:Bag></dc:subject><dc:description>"Wheat" icon by Douglas Santos from thenounproject.com</dc:description></cc:Work><cc:License rdf:about="http://creativecommons.org/licenses/by-sa/3.0/"><cc:permits rdf:resource="http://creativecommons.org/ns#Reproduction"/><cc:permits rdf:resource="http://creativecommons.org/ns#Distribution"/><cc:requires rdf:resource="http://creativecommons.org/ns#Notice"/><cc:requires rdf:resource="http://creativecommons.org/ns#Attribution"/><cc:permits rdf:resource="http://creativecommons.org/ns#DerivativeWorks"/><cc:requires rdf:resource="http://creativecommons.org/ns#ShareAlike"/></cc:License></rdf:RDF></metadata><defs id="defs44"/><sodipodi:namedview pagecolor="#ffffff" bordercolor="#666666" borderopacity="1" objecttolerance="10" gridtolerance="10" guidetolerance="10" inkscape:pageopacity="0" inkscape:pageshadow="2" inkscape:window-width="1366" inkscape:window-height="706" id="namedview42" showgrid="false" fit-margin-top="0" fit-margin-left="0" fit-margin-right="0" fit-margin-bottom="0" inkscape:zoom="1.7980952" inkscape:cx="-82.003139" inkscape:cy="36.875588" inkscape:window-x="-8" inkscape:window-y="-8" inkscape:window-maximized="1" inkscape:current-layer="svg2"/><g id="g4" transform="translate(-19.659387,-2.5)"><path d="m 24.958,71.085 c 4.808,-4.806 -4.809,-16.823 -4.809,-16.823 -2.401,14.42 4.809,16.823 4.809,16.823 z" id="path6" inkscape:connector-curvature="0" style="fill:#000000"/><path d="m 29.239,63.785 c 1.053,-4.356 0.715,-6.6 0,-8.637 -0.976,-2.792 -4.956,-10.741 -4.956,-10.741 -5.631,17.651 4.956,19.378 4.956,19.378 z" id="path8" inkscape:connector-curvature="0" style="fill:#000000"/><path d="m 32.768,54.096 c 3.682,-4.131 2.704,-9.688 2.704,-9.688 L 31.267,33.592 c 0,0 -2.704,6.234 -3.456,11.342 -0.749,5.107 4.957,9.162 4.957,9.162 z" id="path10" inkscape:connector-curvature="0" style="fill:#000000"/><path d="m 39.152,43.505 c 4.063,-3.78 4.432,-9.914 4.432,-9.914 0.227,-4.129 -2.78,-12.766 -2.78,-12.766 -3.228,4.281 -6.756,13.968 -6.756,13.968 -1.13,6.159 5.104,8.712 5.104,8.712 z" id="path12" inkscape:connector-curvature="0" style="fill:#000000"/><path d="m 47.264,33.217 c 5.482,-4.884 5.408,-8.036 5.408,-8.036 l -0.676,-11.64 -6.309,9.087 c -4.655,5.934 1.577,10.589 1.577,10.589 z" id="path14" inkscape:connector-curvature="0" style="fill:#000000"/><path d="m 55.902,23.905 c 5.633,-2.479 5.781,-6.459 5.781,-6.459 l 0,-9.389 -6.76,8.637 c -3.38,4.132 0.979,7.211 0.979,7.211 z" id="path16" inkscape:connector-curvature="0" style="fill:#000000"/><path d="M 64.463,16.47 C 71.973,10.762 71.822,1.751 70.695,3.327 69.57,4.903 64.838,9.711 64.838,9.711 61.385,13.765 64.463,16.47 64.463,16.47 Z" id="path18" inkscape:connector-curvature="0" style="fill:#000000"/><path d="m 27.071,71.525 c 0,0 2.814,5.59 14.61,-3.043 0,0 -12.478,-3.412 -14.61,3.043 z" id="path20" inkscape:connector-curvature="0" style="fill:#000000"/><path d="m 37.51,59.618 c -2.127,0.356 -4.254,1.147 -7.561,4.171 0,0 3.983,9.452 16.714,-4.011 0.001,0 -6.234,-0.655 -9.153,-0.16 z" id="path22" inkscape:connector-curvature="0" style="fill:#000000"/><path d="m 33.937,54.445 c 0,0 5.313,4.561 10.087,2.602 4.775,-1.963 10.859,-7.561 10.859,-7.561 l -12.195,0 c 0,0 -5.63,0.392 -8.751,4.959 z" id="path24" inkscape:connector-curvature="0" style="fill:#000000"/><path d="m 49.447,38.603 c 0,0 -6.003,1.312 -9.11,5.907 0,0 3.483,5.765 9.393,3.702 0,0 10.324,-5.311 14.057,-9.161 0,0 -10.293,-1.309 -14.34,-0.448 z" id="path26" inkscape:connector-curvature="0" style="fill:#000000"/><path d="m 48.314,33.857 c 0,0 4.289,6.492 10.484,2.184 L 69.597,29.437 56.65,28.921 c 0,0 -3.144,-0.255 -8.336,4.936 z" id="path28" inkscape:connector-curvature="0" style="fill:#000000"/><path d="m 57.66,24.73 c 0,0 2.205,3.96 7.014,1.646 l 12.457,-5.551 -12.041,0 c 0,0.001 -3.697,-0.989 -7.43,3.905 z" id="path30" inkscape:connector-curvature="0" style="fill:#000000"/><path d="m 65.865,17.347 c 0,0 1.262,2.844 6.354,1.277 0,0 7.174,-3.563 9.064,-3.972 1.897,-0.412 -7.97,-2.63 -15.418,2.695 z" id="path32" inkscape:connector-curvature="0" style="fill:#000000"/><path d="M 70.32,13.542 C 81.283,10.46 85.34,2.5 85.34,2.5 68.666,8.585 70.32,13.542 70.32,13.542 Z" id="path34" inkscape:connector-curvature="0" style="fill:#000000"/><path d="m 25.779,71.745 c 0,0 -5.551,9.464 -3.148,30.341 0,0 1.652,1.352 1.878,-0.827 0.224,-2.177 -3.458,-9.603 2.037,-28.045 -10e-4,0 0.978,-1.519 -0.767,-1.469 z" id="path36" inkscape:connector-curvature="0" style="fill:#000000"/></g></svg>